<svg version="1.2" xmlns="http://www.w3.org/2000/svg" viewBox="0 0 1024 1024" width="1024" height="1024">
	<title>grapes_1f347</title>
	<style>
		.s0 { fill: #77b156 } 
		.s1 { opacity: .6;fill: #986fcf } 
		.s2 { fill: #aa8dd8 } 
		.s3 { fill: #9266cc } 
		.s4 { fill: #744eaa } 
		.s5 { opacity: .6;fill: #744eaa } 
		.s6 { opacity: .1;fill: #956bcd } 
		.s7 { fill: #553788 } 
		.s8 { opacity: .9;fill: #744eaa } 
		.s9 { opacity: .1;fill: #744eaa } 
	</style>
	<g id="Background">
		<path id="Path 0" class="s0" d="m37.3 0c7.2-0.1 16.2 3.3 20 7.5 3.9 4.2 12.7 21 19.6 37.5 6.9 16.4 20.3 43.3 29.9 59.8 9.5 16.4 26.4 42.4 37.5 57.6 11.1 15.3 30 37.8 42.1 50.1 12.1 12.3 21 23 19.8 23.8-1.2 0.8-13.7 6.9-53.4 25.8l-18.3-21c-10.1-11.6-29.5-37.4-43.1-57.3-13.6-20-30.6-46.9-37.9-59.8-7.3-12.9-19.1-38.4-26.3-56.6-7.3-18.2-13.2-36.9-13.2-41.6 0-4.7 2.3-12.4 5.1-17.1 3.3-5.5 9.8-8.6 18.2-8.7z"/>
		<path id="Path 1" class="s1" d="m524.3 142.1c9.4 0 13.9 0.8 9.9 1.9-3.9 1.1-11.6 1.1-17.1 0.1-5.4-1-2.1-1.9 7.2-2z"/>
		<path id="Path 2" class="s2" d="m527.6 145.8c20.9-0.3 42.1 2.3 57.6 7.2 13.5 4.1 35 14.2 47.7 22.4 12.7 8.1 30.8 23.4 40.1 34 9.3 10.6 22.8 31.7 29.9 47 7.1 15.2 13.8 34.5 14.8 42.7 1.8 14.7 1.6 15-18.9 20.3-11.4 2.9-32.2 12.2-46.3 20.5-14.1 8.4-31.1 20.4-37.8 26.7-6.7 6.3-17.8 19.7-24.6 29.6-9 13.3-14.4 17.5-19.8 15.7-4.2-1.4-21.9-5.5-39.5-9.1-26.5-5.4-37.3-5.7-62-1.6-16.4 2.8-40.4 9.9-53.4 15.7-12.9 5.9-30.6 16.4-55.5 35.9l-6.3-9.6c-3.5-5.3-10.4-20.2-15.3-33.1-5-12.9-10.1-36.9-11.3-53.4-1.3-16.4-0.2-40.4 2.5-53.3 2.6-13 11-36 18.6-51.3 7.6-15.3 23.5-37.4 35.3-49.2 11.7-11.8 32.9-27.6 47-35.1 14.1-7.5 34.3-15.4 44.8-17.6 10.6-2.2 34.1-4.1 52.4-4.4z"/>
		<path id="Path 3" class="s3" d="m272.4 228.5c23.5 0.4 50.4 3.4 59.8 6.7 9.4 3.3 17.5 6 17.9 6.1 0.5 0.1-4.2 12.6-10.5 27.9-9.7 23.6-11.4 34.2-11.5 70.5-0.2 30 2 49 7.3 64 4.1 11.8 11.3 27.6 24.5 49.1l18.2-13.9c10-7.7 27.7-18.1 39.5-23.2 11.7-5.1 34.8-11.6 51.2-14.4 25.6-4.3 34.9-4 64.1 2.3 18.8 4.1 37.5 7.7 41.6 8 4.1 0.4 7.5 2.1 7.5 3.9 0 1.7 8.2 7.8 18.2 13.4 9.9 5.6 28.2 21 40.5 34.2 12.4 13.1 28.1 35.9 35.1 50.6 6.9 14.7 14.6 39.7 17.1 55.5 2.8 18.5 3 37.7 0.5 53.4-2.1 13.5-5.3 30.3-7 37.4-3.1 12.3-2.9 12.5 4.9 5.6 4.5-4 21.6-13.4 38-21.1 24.7-11.4 36.7-14.2 68.4-15.9 33.1-1.7 43.4-0.5 74.7 9.2 23.2 7.2 44 17.2 57.7 27.6 11.7 8.9 30.1 27.7 40.8 41.7 11.7 15.3 23.4 37.4 29.4 55.4 8.5 25.7 9.7 36.2 8.1 74.7-1.6 42.5-2.6 46.5-18.7 76.5-9.3 17.5-26.7 41.5-38.6 53.4-11.9 11.9-36 29.4-85.1 55.9h-53.4c-45.2 0-56.9-1.5-76.9-9.5-12.9-5.2-34.8-18.7-48.7-29.9-13.9-11.2-32.6-31-41.5-43.9-9-12.9-20.4-36-25.5-51.3-7.8-23.5-8.9-34.5-7.2-72.6 1.1-24.6 3.7-48.6 5.8-53.3 3.3-7.8 2.3-7.6-11.1 2-8.2 5.8-25.4 14.9-38.3 20.2-19.5 7.9-31.7 9.6-71.5 9.7-26.5 0-51.5-1.6-55.6-3.6-4.1-2-19-9-33.1-15.5-14.5-6.7-36.4-22.2-50.5-35.8-15.1-14.6-30.3-34.9-38.8-51.8-7.7-15.3-16.2-41.1-18.9-57.6-2.7-16.5-4.5-41.3-3.9-55.3 1-23.7 0.4-25.5-9.6-28.4-5.8-1.7-26-3.2-44.8-3.5-20-0.3-43.9 2.4-57.7 6.3-12.9 3.8-30.2 10.7-53.4 24.1l-16.6-18.6c-9.1-10.2-22.6-31.1-29.9-46.3-12.6-26.5-13.2-30.3-13.2-81.2 0-51.8 0.4-54.3 14.3-83.3 8.6-17.9 24-39.9 38.4-54.9 17.6-18.2 33.4-29.3 58.3-41 18.8-8.8 37-17 40.6-18.2 3.5-1.1 25.6-1.7 49.1-1.3z"/>
		<path id="Path 4" class="s1" d="m268.1 227.6c9.4-0.1 13.8 0.8 9.9 1.8-4 1.1-11.7 1.1-17.1 0.1-5.4-1-2.2-1.9 7.2-1.9z"/>
		<path id="Path 5" class="s4" d="m759.5 316.8c23.4 1.5 51.1 5.9 61.7 9.8 10.5 3.9 26.9 11.6 36.3 17.1 9.4 5.5 26.8 20.3 38.8 32.9 11.9 12.6 25.7 30.5 30.5 39.9 4.8 9.4 11.8 27.7 15.6 40.6 3.9 12.9 6.9 38.4 6.9 56.6 0 19.7-3.1 43-7.7 57.6-4.2 13.6-12.6 33.3-18.7 43.8-6 10.6-14.1 21.6-17.9 24.6-5.7 4.3-12.7 3.6-37.9-3.9-25-7.4-38.4-8.7-69.4-7.1-31.8 1.6-43.6 4.4-68.4 15.8-16.4 7.7-33.5 17.1-38 21.1-7.8 6.9-8 6.7-4.9-5.6 1.7-7.1 4.9-23.9 7-37.4 2.5-15.7 2.3-34.9-0.5-53.4-2.5-15.8-10.2-40.8-17.1-55.5-7-14.7-22.7-37.5-35.1-50.6-12.3-13.2-30.6-28.6-40.5-34.2-10-5.6-18.3-12.6-18.3-15.6-0.1-2.9 5.3-13 12-22.4 6.7-9.4 18.8-22.6 26.8-29.3 8.1-6.8 23.3-17.3 33.9-23.4 10.6-6 29-14 40.9-17.6 16.4-5 31.7-5.9 64-3.8z"/>
		<path id="Path 6" class="s5" d="m752.8 313.1c10.6 0 14.4 0.8 8.6 1.8-5.9 1-14.5 1-19.2 0-4.7-1 0.1-1.8 10.6-1.8z"/>
		<path id="Path 7" class="s6" d="m68.3 416.5c1 4.7 1 13.4 0 19.3-1.1 5.8-1.9 2-1.9-8.6 0-10.6 0.8-15.4 1.9-10.7z"/>
		<path id="Path 8" class="s5" d="m952.3 501.9c1 4.7 1 13.4 0 19.3-1 5.8-1.9 2-1.9-8.6 0-10.5 0.9-15.4 1.9-10.7z"/>
		<path id="Path 9" class="s4" d="m240.3 543.2c20 0.1 41.2 1.5 47 3.2 10 2.9 10.6 4.7 9.6 28.4-0.6 14 1.2 38.8 3.9 55.3 2.7 16.5 11.2 42.3 18.9 57.6 8.6 17 23.6 37.1 38.8 51.7 13.7 13.1 35 29 47.3 35.2 12.4 6.3 25.8 11.4 29.9 11.4q7.5 0.1 2.4 3.2c-2.8 1.7-8.2 11.8-12.1 22.4-3.8 10.5-14 29.6-22.6 42.3-8.6 12.8-24.4 30.1-34.9 38.5-10.6 8.4-20.2 16.3-21.4 17.6-1.2 1.2-14.6 7.8-29.9 14.6-25.3 11.2-32.1 12.3-76.9 12.4-47.6 0.1-50-0.3-81.1-15.2-17.6-8.3-40.6-22.7-51-31.8-10.4-9.1-26.3-28-35.3-42.1-9.1-14.1-19.6-35.3-23.4-47-4-12.4-6.9-35.7-7-55.5 0-18.8 1.5-41.9 3.3-51.3 1.8-9.4 9.1-28.6 16.3-42.7 7.2-14.1 22.8-35.8 34.8-48.3 11.9-12.5 30.4-27.8 41-33.9 10.5-6.2 29.7-14.6 42.7-18.7 15.1-4.9 36.4-7.5 59.7-7.3z"/>
		<path id="Path 10" class="s5" d="m42.6 728.3c1.1 4.7 1.1 13.3 0 19.2-1 5.9-1.8 2-1.8-8.5 0-10.6 0.8-15.4 1.8-10.7z"/>
		<path id="Path 11" class="s7" d="m618.4 757.8c0.4 0.5-1.2 8.4-3.6 17.7-2.3 9.3-4.3 32.2-4.4 51 0 21.7 2.8 42.8 7.7 57.7 4.2 12.9 11.6 30.2 16.4 38.4 4.9 8.2 14.2 21.7 32.5 44.9l-20.1 15.5c-11 8.5-29.7 20.6-41.4 26.8-17.3 9.2-29.5 11.8-64.1 14.1-30.1 1.9-47.1 1.1-57.6-2.7-8.2-3-18.8-6.9-23.5-8.6-4.7-1.7-18-7.8-29.5-13.4-11.6-5.7-28.9-17.3-38.5-25.7-9.6-8.4-23.6-24.7-31.2-36.3-7.6-11.5-13.7-22.9-13.6-25.3 0-2.3 9.1-11.1 20.1-19.4 11.1-8.4 27.6-26.6 36.9-40.6 9.2-13.9 19.3-33.5 22.4-43.5 5.6-18.1 5.7-18.2 21.6-15 8.9 1.8 33.4 3 54.5 2.8 28.3-0.3 44.6-2.8 61.9-9.5 12.9-5 30.1-13.8 38.1-19.4 8.1-5.7 15-10 15.4-9.5z"/>
		<path id="Path 12" class="s4" d="m496.6 795.9c17.6 0 24.3 0.8 14.9 1.7-9.4 0.9-23.8 0.9-32 0-8.2-0.9-0.5-1.7 17.1-1.7z"/>
		<path id="Path 13" class="s4" d="m610.5 815.8c1.1 3.6 1.1 11.3 0.1 17.1-1.1 6.4-1.8 3.8-1.9-6.4 0-9.4 0.8-14.2 1.8-10.7z"/>
		<path id="Path 14" class="s8" d="m240.3 936.6c10.6 0 14.5 0.8 8.6 1.8-5.9 1.1-14.5 1.1-19.2 0-4.7-1 0.1-1.8 10.6-1.8z"/>
		<path id="Path 15" class="s9" d="m240.3 940.9c10.6 0 14.5 0.8 8.6 1.8-5.9 1-14.5 1-19.2 0-4.7-1 0.1-1.8 10.6-1.8z"/>
	</g>
</svg>